<mxfile host="app.diagrams.net" modified="2024-01-24T05:34:01.766Z" agent="Mozilla/5.0 (Windows NT 10.0; Win64; x64) AppleWebKit/537.36 (KHTML, like Gecko) Chrome/120.0.0.0 Safari/537.36" etag="jFRKZVSyxhfy4Fz9Y1NI" version="23.0.0" type="github">
  <diagram id="C5RBs43oDa-KdzZeNtuy" name="Page-1">
    <mxGraphModel dx="2000" dy="613" grid="1" gridSize="10" guides="1" tooltips="1" connect="1" arrows="1" fold="1" page="1" pageScale="1" pageWidth="827" pageHeight="1169" math="0" shadow="0">
      <root>
        <mxCell id="WIyWlLk6GJQsqaUBKTNV-0" />
        <mxCell id="WIyWlLk6GJQsqaUBKTNV-1" parent="WIyWlLk6GJQsqaUBKTNV-0" />
        <mxCell id="_kLyWcV2JEi088Gw9Ph3-5" value="" style="edgeStyle=orthogonalEdgeStyle;rounded=0;orthogonalLoop=1;jettySize=auto;html=1;" edge="1" parent="WIyWlLk6GJQsqaUBKTNV-1" source="WIyWlLk6GJQsqaUBKTNV-3" target="_kLyWcV2JEi088Gw9Ph3-4">
          <mxGeometry relative="1" as="geometry" />
        </mxCell>
        <mxCell id="_kLyWcV2JEi088Gw9Ph3-7" value="" style="edgeStyle=orthogonalEdgeStyle;rounded=0;orthogonalLoop=1;jettySize=auto;html=1;" edge="1" parent="WIyWlLk6GJQsqaUBKTNV-1" source="WIyWlLk6GJQsqaUBKTNV-3" target="_kLyWcV2JEi088Gw9Ph3-6">
          <mxGeometry relative="1" as="geometry" />
        </mxCell>
        <mxCell id="_kLyWcV2JEi088Gw9Ph3-9" value="" style="edgeStyle=orthogonalEdgeStyle;rounded=0;orthogonalLoop=1;jettySize=auto;html=1;" edge="1" parent="WIyWlLk6GJQsqaUBKTNV-1" source="WIyWlLk6GJQsqaUBKTNV-3" target="_kLyWcV2JEi088Gw9Ph3-8">
          <mxGeometry relative="1" as="geometry" />
        </mxCell>
        <mxCell id="WIyWlLk6GJQsqaUBKTNV-3" value="Choice of Destination" style="rounded=1;whiteSpace=wrap;html=1;fontSize=12;glass=0;strokeWidth=1;shadow=0;fillColor=#dae8fc;gradientColor=#7ea6e0;strokeColor=#6c8ebf;" parent="WIyWlLk6GJQsqaUBKTNV-1" vertex="1">
          <mxGeometry x="330" y="160" width="120" height="40" as="geometry" />
        </mxCell>
        <mxCell id="_kLyWcV2JEi088Gw9Ph3-15" value="" style="edgeStyle=orthogonalEdgeStyle;rounded=0;orthogonalLoop=1;jettySize=auto;html=1;" edge="1" parent="WIyWlLk6GJQsqaUBKTNV-1" source="_kLyWcV2JEi088Gw9Ph3-4" target="_kLyWcV2JEi088Gw9Ph3-14">
          <mxGeometry relative="1" as="geometry" />
        </mxCell>
        <mxCell id="_kLyWcV2JEi088Gw9Ph3-17" value="" style="edgeStyle=orthogonalEdgeStyle;rounded=0;orthogonalLoop=1;jettySize=auto;html=1;" edge="1" parent="WIyWlLk6GJQsqaUBKTNV-1" source="_kLyWcV2JEi088Gw9Ph3-4" target="_kLyWcV2JEi088Gw9Ph3-16">
          <mxGeometry relative="1" as="geometry" />
        </mxCell>
        <mxCell id="_kLyWcV2JEi088Gw9Ph3-4" value="Cebu" style="whiteSpace=wrap;html=1;rounded=1;glass=0;strokeWidth=1;shadow=0;fillColor=#d5e8d4;gradientColor=#97d077;strokeColor=#82b366;" vertex="1" parent="WIyWlLk6GJQsqaUBKTNV-1">
          <mxGeometry x="50" y="210" width="90" height="30" as="geometry" />
        </mxCell>
        <mxCell id="_kLyWcV2JEi088Gw9Ph3-31" value="" style="edgeStyle=orthogonalEdgeStyle;rounded=0;orthogonalLoop=1;jettySize=auto;html=1;" edge="1" parent="WIyWlLk6GJQsqaUBKTNV-1" source="_kLyWcV2JEi088Gw9Ph3-6" target="_kLyWcV2JEi088Gw9Ph3-30">
          <mxGeometry relative="1" as="geometry" />
        </mxCell>
        <mxCell id="_kLyWcV2JEi088Gw9Ph3-32" value="" style="edgeStyle=orthogonalEdgeStyle;rounded=0;orthogonalLoop=1;jettySize=auto;html=1;" edge="1" parent="WIyWlLk6GJQsqaUBKTNV-1" source="_kLyWcV2JEi088Gw9Ph3-6" target="_kLyWcV2JEi088Gw9Ph3-30">
          <mxGeometry relative="1" as="geometry" />
        </mxCell>
        <mxCell id="_kLyWcV2JEi088Gw9Ph3-34" value="" style="edgeStyle=orthogonalEdgeStyle;rounded=0;orthogonalLoop=1;jettySize=auto;html=1;" edge="1" parent="WIyWlLk6GJQsqaUBKTNV-1" source="_kLyWcV2JEi088Gw9Ph3-6" target="_kLyWcV2JEi088Gw9Ph3-33">
          <mxGeometry relative="1" as="geometry" />
        </mxCell>
        <mxCell id="_kLyWcV2JEi088Gw9Ph3-6" value="Bohol" style="rounded=1;whiteSpace=wrap;html=1;glass=0;strokeWidth=1;shadow=0;fillColor=#d5e8d4;gradientColor=#97d077;strokeColor=#82b366;" vertex="1" parent="WIyWlLk6GJQsqaUBKTNV-1">
          <mxGeometry x="345" y="240" width="90" height="30" as="geometry" />
        </mxCell>
        <mxCell id="_kLyWcV2JEi088Gw9Ph3-8" value="Davao" style="rounded=1;whiteSpace=wrap;html=1;glass=0;strokeWidth=1;shadow=0;fillColor=#d5e8d4;gradientColor=#97d077;strokeColor=#82b366;" vertex="1" parent="WIyWlLk6GJQsqaUBKTNV-1">
          <mxGeometry x="610" y="210" width="100" height="30" as="geometry" />
        </mxCell>
        <mxCell id="_kLyWcV2JEi088Gw9Ph3-19" value="" style="edgeStyle=orthogonalEdgeStyle;rounded=0;orthogonalLoop=1;jettySize=auto;html=1;" edge="1" parent="WIyWlLk6GJQsqaUBKTNV-1" source="_kLyWcV2JEi088Gw9Ph3-14" target="_kLyWcV2JEi088Gw9Ph3-18">
          <mxGeometry relative="1" as="geometry" />
        </mxCell>
        <mxCell id="_kLyWcV2JEi088Gw9Ph3-14" value="Fine Weather" style="whiteSpace=wrap;html=1;rounded=1;glass=0;strokeWidth=1;shadow=0;" vertex="1" parent="WIyWlLk6GJQsqaUBKTNV-1">
          <mxGeometry x="10" y="280" width="90" height="30" as="geometry" />
        </mxCell>
        <mxCell id="_kLyWcV2JEi088Gw9Ph3-21" value="" style="edgeStyle=orthogonalEdgeStyle;rounded=0;orthogonalLoop=1;jettySize=auto;html=1;" edge="1" parent="WIyWlLk6GJQsqaUBKTNV-1" source="_kLyWcV2JEi088Gw9Ph3-16" target="_kLyWcV2JEi088Gw9Ph3-20">
          <mxGeometry relative="1" as="geometry" />
        </mxCell>
        <mxCell id="_kLyWcV2JEi088Gw9Ph3-16" value="Rainy Season" style="whiteSpace=wrap;html=1;rounded=1;glass=0;strokeWidth=1;shadow=0;" vertex="1" parent="WIyWlLk6GJQsqaUBKTNV-1">
          <mxGeometry x="107.5" y="280" width="90" height="30" as="geometry" />
        </mxCell>
        <mxCell id="_kLyWcV2JEi088Gw9Ph3-39" value="" style="edgeStyle=orthogonalEdgeStyle;rounded=0;orthogonalLoop=1;jettySize=auto;html=1;" edge="1" parent="WIyWlLk6GJQsqaUBKTNV-1" source="_kLyWcV2JEi088Gw9Ph3-18" target="_kLyWcV2JEi088Gw9Ph3-38">
          <mxGeometry relative="1" as="geometry" />
        </mxCell>
        <mxCell id="_kLyWcV2JEi088Gw9Ph3-18" value="Go to Cebu" style="whiteSpace=wrap;html=1;rounded=1;glass=0;strokeWidth=1;shadow=0;" vertex="1" parent="WIyWlLk6GJQsqaUBKTNV-1">
          <mxGeometry x="-120" y="277.5" width="105" height="35" as="geometry" />
        </mxCell>
        <mxCell id="_kLyWcV2JEi088Gw9Ph3-20" value="Go Home in Manila" style="whiteSpace=wrap;html=1;rounded=1;glass=0;strokeWidth=1;shadow=0;" vertex="1" parent="WIyWlLk6GJQsqaUBKTNV-1">
          <mxGeometry x="105" y="337.5" width="95" height="35" as="geometry" />
        </mxCell>
        <mxCell id="_kLyWcV2JEi088Gw9Ph3-28" value="" style="edgeStyle=orthogonalEdgeStyle;rounded=0;orthogonalLoop=1;jettySize=auto;html=1;" edge="1" parent="WIyWlLk6GJQsqaUBKTNV-1" source="_kLyWcV2JEi088Gw9Ph3-27" target="WIyWlLk6GJQsqaUBKTNV-3">
          <mxGeometry relative="1" as="geometry" />
        </mxCell>
        <mxCell id="_kLyWcV2JEi088Gw9Ph3-27" value="Vacation" style="rounded=1;whiteSpace=wrap;html=1;fillColor=#dae8fc;gradientColor=#7ea6e0;strokeColor=#6c8ebf;" vertex="1" parent="WIyWlLk6GJQsqaUBKTNV-1">
          <mxGeometry x="335" y="70" width="110" height="40" as="geometry" />
        </mxCell>
        <mxCell id="_kLyWcV2JEi088Gw9Ph3-67" value="" style="edgeStyle=orthogonalEdgeStyle;rounded=0;orthogonalLoop=1;jettySize=auto;html=1;" edge="1" parent="WIyWlLk6GJQsqaUBKTNV-1" source="_kLyWcV2JEi088Gw9Ph3-30" target="_kLyWcV2JEi088Gw9Ph3-66">
          <mxGeometry relative="1" as="geometry" />
        </mxCell>
        <mxCell id="_kLyWcV2JEi088Gw9Ph3-30" value="Fine Weather" style="whiteSpace=wrap;html=1;rounded=1;glass=0;strokeWidth=1;shadow=0;" vertex="1" parent="WIyWlLk6GJQsqaUBKTNV-1">
          <mxGeometry x="290" y="310" width="97.5" height="30" as="geometry" />
        </mxCell>
        <mxCell id="_kLyWcV2JEi088Gw9Ph3-69" value="" style="edgeStyle=orthogonalEdgeStyle;rounded=0;orthogonalLoop=1;jettySize=auto;html=1;" edge="1" parent="WIyWlLk6GJQsqaUBKTNV-1" source="_kLyWcV2JEi088Gw9Ph3-33" target="_kLyWcV2JEi088Gw9Ph3-68">
          <mxGeometry relative="1" as="geometry" />
        </mxCell>
        <mxCell id="_kLyWcV2JEi088Gw9Ph3-33" value="Rainy Season" style="rounded=1;whiteSpace=wrap;html=1;glass=0;strokeWidth=1;shadow=0;" vertex="1" parent="WIyWlLk6GJQsqaUBKTNV-1">
          <mxGeometry x="400" y="310" width="90" height="30" as="geometry" />
        </mxCell>
        <mxCell id="_kLyWcV2JEi088Gw9Ph3-41" value="" style="edgeStyle=orthogonalEdgeStyle;rounded=0;orthogonalLoop=1;jettySize=auto;html=1;" edge="1" parent="WIyWlLk6GJQsqaUBKTNV-1" source="_kLyWcV2JEi088Gw9Ph3-38" target="_kLyWcV2JEi088Gw9Ph3-40">
          <mxGeometry relative="1" as="geometry" />
        </mxCell>
        <mxCell id="_kLyWcV2JEi088Gw9Ph3-53" style="edgeStyle=orthogonalEdgeStyle;rounded=0;orthogonalLoop=1;jettySize=auto;html=1;exitX=1;exitY=0.5;exitDx=0;exitDy=0;" edge="1" parent="WIyWlLk6GJQsqaUBKTNV-1" source="_kLyWcV2JEi088Gw9Ph3-38" target="_kLyWcV2JEi088Gw9Ph3-49">
          <mxGeometry relative="1" as="geometry" />
        </mxCell>
        <mxCell id="_kLyWcV2JEi088Gw9Ph3-38" value="Book a Ticket and Hotel" style="whiteSpace=wrap;html=1;rounded=1;glass=0;strokeWidth=1;shadow=0;" vertex="1" parent="WIyWlLk6GJQsqaUBKTNV-1">
          <mxGeometry x="-120" y="340" width="105" height="35" as="geometry" />
        </mxCell>
        <mxCell id="_kLyWcV2JEi088Gw9Ph3-43" value="" style="edgeStyle=orthogonalEdgeStyle;rounded=0;orthogonalLoop=1;jettySize=auto;html=1;" edge="1" parent="WIyWlLk6GJQsqaUBKTNV-1" source="_kLyWcV2JEi088Gw9Ph3-40" target="_kLyWcV2JEi088Gw9Ph3-42">
          <mxGeometry relative="1" as="geometry" />
        </mxCell>
        <mxCell id="_kLyWcV2JEi088Gw9Ph3-40" value="Pack luggage" style="whiteSpace=wrap;html=1;rounded=1;glass=0;strokeWidth=1;shadow=0;" vertex="1" parent="WIyWlLk6GJQsqaUBKTNV-1">
          <mxGeometry x="-120" y="400" width="105" height="35" as="geometry" />
        </mxCell>
        <mxCell id="_kLyWcV2JEi088Gw9Ph3-45" value="" style="edgeStyle=orthogonalEdgeStyle;rounded=0;orthogonalLoop=1;jettySize=auto;html=1;" edge="1" parent="WIyWlLk6GJQsqaUBKTNV-1" source="_kLyWcV2JEi088Gw9Ph3-42" target="_kLyWcV2JEi088Gw9Ph3-44">
          <mxGeometry relative="1" as="geometry" />
        </mxCell>
        <mxCell id="_kLyWcV2JEi088Gw9Ph3-42" value="Go to Airport" style="whiteSpace=wrap;html=1;rounded=1;glass=0;strokeWidth=1;shadow=0;" vertex="1" parent="WIyWlLk6GJQsqaUBKTNV-1">
          <mxGeometry x="-120" y="460" width="105" height="35" as="geometry" />
        </mxCell>
        <mxCell id="_kLyWcV2JEi088Gw9Ph3-58" value="" style="edgeStyle=orthogonalEdgeStyle;rounded=0;orthogonalLoop=1;jettySize=auto;html=1;" edge="1" parent="WIyWlLk6GJQsqaUBKTNV-1" source="_kLyWcV2JEi088Gw9Ph3-44" target="_kLyWcV2JEi088Gw9Ph3-57">
          <mxGeometry relative="1" as="geometry" />
        </mxCell>
        <mxCell id="_kLyWcV2JEi088Gw9Ph3-60" value="" style="edgeStyle=orthogonalEdgeStyle;rounded=0;orthogonalLoop=1;jettySize=auto;html=1;" edge="1" parent="WIyWlLk6GJQsqaUBKTNV-1" source="_kLyWcV2JEi088Gw9Ph3-44" target="_kLyWcV2JEi088Gw9Ph3-59">
          <mxGeometry relative="1" as="geometry" />
        </mxCell>
        <mxCell id="_kLyWcV2JEi088Gw9Ph3-61" value="" style="edgeStyle=orthogonalEdgeStyle;rounded=0;orthogonalLoop=1;jettySize=auto;html=1;" edge="1" parent="WIyWlLk6GJQsqaUBKTNV-1" source="_kLyWcV2JEi088Gw9Ph3-44" target="_kLyWcV2JEi088Gw9Ph3-59">
          <mxGeometry relative="1" as="geometry" />
        </mxCell>
        <mxCell id="_kLyWcV2JEi088Gw9Ph3-65" value="" style="edgeStyle=orthogonalEdgeStyle;rounded=0;orthogonalLoop=1;jettySize=auto;html=1;" edge="1" parent="WIyWlLk6GJQsqaUBKTNV-1" source="_kLyWcV2JEi088Gw9Ph3-44" target="_kLyWcV2JEi088Gw9Ph3-64">
          <mxGeometry relative="1" as="geometry" />
        </mxCell>
        <mxCell id="_kLyWcV2JEi088Gw9Ph3-44" value="Take a taxi/tricycle going to Hotel" style="whiteSpace=wrap;html=1;rounded=1;glass=0;strokeWidth=1;shadow=0;" vertex="1" parent="WIyWlLk6GJQsqaUBKTNV-1">
          <mxGeometry x="-127.5" y="520" width="120" height="42.5" as="geometry" />
        </mxCell>
        <mxCell id="_kLyWcV2JEi088Gw9Ph3-55" value="" style="edgeStyle=orthogonalEdgeStyle;rounded=0;orthogonalLoop=1;jettySize=auto;html=1;" edge="1" parent="WIyWlLk6GJQsqaUBKTNV-1" source="_kLyWcV2JEi088Gw9Ph3-49" target="_kLyWcV2JEi088Gw9Ph3-20">
          <mxGeometry relative="1" as="geometry">
            <Array as="points">
              <mxPoint x="100" y="355" />
              <mxPoint x="100" y="355" />
            </Array>
          </mxGeometry>
        </mxCell>
        <mxCell id="_kLyWcV2JEi088Gw9Ph3-49" value="Not enough&lt;br&gt;money?" style="text;html=1;align=center;verticalAlign=middle;resizable=0;points=[];autosize=1;strokeColor=none;fillColor=none;" vertex="1" parent="WIyWlLk6GJQsqaUBKTNV-1">
          <mxGeometry y="337.5" width="90" height="40" as="geometry" />
        </mxCell>
        <mxCell id="_kLyWcV2JEi088Gw9Ph3-57" value="Take a rest" style="whiteSpace=wrap;html=1;rounded=1;glass=0;strokeWidth=1;shadow=0;" vertex="1" parent="WIyWlLk6GJQsqaUBKTNV-1">
          <mxGeometry x="-230" y="600" width="87.5" height="27.5" as="geometry" />
        </mxCell>
        <mxCell id="_kLyWcV2JEi088Gw9Ph3-59" value="Go to restaurants" style="whiteSpace=wrap;html=1;rounded=1;glass=0;strokeWidth=1;shadow=0;" vertex="1" parent="WIyWlLk6GJQsqaUBKTNV-1">
          <mxGeometry x="2.5" y="600" width="105" height="27.5" as="geometry" />
        </mxCell>
        <mxCell id="_kLyWcV2JEi088Gw9Ph3-64" value="Swim" style="whiteSpace=wrap;html=1;rounded=1;glass=0;strokeWidth=1;shadow=0;" vertex="1" parent="WIyWlLk6GJQsqaUBKTNV-1">
          <mxGeometry x="-111.25" y="600" width="87.5" height="27.5" as="geometry" />
        </mxCell>
        <mxCell id="_kLyWcV2JEi088Gw9Ph3-72" value="" style="edgeStyle=orthogonalEdgeStyle;rounded=0;orthogonalLoop=1;jettySize=auto;html=1;" edge="1" parent="WIyWlLk6GJQsqaUBKTNV-1" source="_kLyWcV2JEi088Gw9Ph3-66" target="_kLyWcV2JEi088Gw9Ph3-71">
          <mxGeometry relative="1" as="geometry" />
        </mxCell>
        <mxCell id="_kLyWcV2JEi088Gw9Ph3-66" value="Go to Bohol" style="whiteSpace=wrap;html=1;rounded=1;glass=0;strokeWidth=1;shadow=0;" vertex="1" parent="WIyWlLk6GJQsqaUBKTNV-1">
          <mxGeometry x="290" y="360" width="97.5" height="30" as="geometry" />
        </mxCell>
        <mxCell id="_kLyWcV2JEi088Gw9Ph3-68" value="Go home in Manila" style="rounded=1;whiteSpace=wrap;html=1;glass=0;strokeWidth=1;shadow=0;" vertex="1" parent="WIyWlLk6GJQsqaUBKTNV-1">
          <mxGeometry x="400" y="360" width="90" height="40" as="geometry" />
        </mxCell>
        <mxCell id="_kLyWcV2JEi088Gw9Ph3-71" value="Book a Ticket and Hotel" style="whiteSpace=wrap;html=1;rounded=1;glass=0;strokeWidth=1;shadow=0;" vertex="1" parent="WIyWlLk6GJQsqaUBKTNV-1">
          <mxGeometry x="160" y="400" width="120" height="40" as="geometry" />
        </mxCell>
        <mxCell id="_kLyWcV2JEi088Gw9Ph3-78" value="" style="edgeStyle=orthogonalEdgeStyle;rounded=0;orthogonalLoop=1;jettySize=auto;html=1;" edge="1" parent="WIyWlLk6GJQsqaUBKTNV-1" source="_kLyWcV2JEi088Gw9Ph3-77" target="_kLyWcV2JEi088Gw9Ph3-71">
          <mxGeometry relative="1" as="geometry" />
        </mxCell>
        <mxCell id="_kLyWcV2JEi088Gw9Ph3-79" value="" style="edgeStyle=orthogonalEdgeStyle;rounded=0;orthogonalLoop=1;jettySize=auto;html=1;" edge="1" parent="WIyWlLk6GJQsqaUBKTNV-1">
          <mxGeometry relative="1" as="geometry">
            <mxPoint x="389" y="419" as="sourcePoint" />
            <mxPoint x="440" y="399" as="targetPoint" />
            <Array as="points">
              <mxPoint x="389" y="415" />
              <mxPoint x="440" y="415" />
            </Array>
          </mxGeometry>
        </mxCell>
        <mxCell id="_kLyWcV2JEi088Gw9Ph3-77" value="Not enough&lt;br&gt;money?" style="text;html=1;align=center;verticalAlign=middle;resizable=0;points=[];autosize=1;strokeColor=none;fillColor=none;" vertex="1" parent="WIyWlLk6GJQsqaUBKTNV-1">
          <mxGeometry x="300" y="400" width="90" height="40" as="geometry" />
        </mxCell>
      </root>
    </mxGraphModel>
  </diagram>
</mxfile>
